<?xml version="1.0" encoding="UTF-8" standalone="no"?>
<svg
   enable-background="new 0 0 32 32"
   id="Glyph"
   version="1.1"
   viewBox="0 0 32 32"
   xml:space="preserve"
   sodipodi:docname="filter.svg"
   inkscape:version="1.2.1 (9c6d41e410, 2022-07-14)"
   xmlns:inkscape="http://www.inkscape.org/namespaces/inkscape"
   xmlns:sodipodi="http://sodipodi.sourceforge.net/DTD/sodipodi-0.dtd"
   xmlns="http://www.w3.org/2000/svg"
   xmlns:svg="http://www.w3.org/2000/svg"><defs
     id="defs310" /><sodipodi:namedview
     id="namedview308"
     pagecolor="#ffffff"
     bordercolor="#000000"
     borderopacity="0.25"
     inkscape:showpageshadow="2"
     inkscape:pageopacity="0.0"
     inkscape:pagecheckerboard="0"
     inkscape:deskcolor="#d1d1d1"
     showgrid="false"
     inkscape:zoom="26.46875"
     inkscape:cx="13.544274"
     inkscape:cy="16.01889"
     inkscape:window-width="1920"
     inkscape:window-height="1027"
     inkscape:window-x="-8"
     inkscape:window-y="-8"
     inkscape:window-maximized="1"
     inkscape:current-layer="Glyph" /><path
     d="M29.815,6.168C29.484,5.448,28.783,5,27.986,5H4.014c-0.797,0-1.498,0.448-1.83,1.168  c-0.329,0.714-0.215,1.53,0.297,2.128c0,0,0.001,0.001,0.001,0.001L12,19.371V28c0,0.369,0.203,0.708,0.528,0.882  C12.676,28.961,12.838,29,13,29c0.194,0,0.387-0.057,0.555-0.168l6-4C19.833,24.646,20,24.334,20,24v-4.629l9.519-11.074  C30.031,7.698,30.145,6.882,29.815,6.168z"
     id="XMLID_276_" /></svg>
