<?xml version="1.0" encoding="UTF-8" standalone="no"?>
<svg
   viewBox="0 0 1200 720"
   width="1200"
   height="720"
   role="img"
   aria-labelledby="mt md"
   font-family="'Segoe UI', system-ui, -apple-system, sans-serif"
   version="1.1"
   id="svg134"
   sodipodi:docname="mockup.svg"
   inkscape:version="1.4.2 (f4327f4, 2025-05-13)"
   xmlns:inkscape="http://www.inkscape.org/namespaces/inkscape"
   xmlns:sodipodi="http://sodipodi.sourceforge.net/DTD/sodipodi-0.dtd"
   xmlns="http://www.w3.org/2000/svg"
   xmlns:svg="http://www.w3.org/2000/svg">
  <sodipodi:namedview
     id="namedview134"
     pagecolor="#ffffff"
     bordercolor="#000000"
     borderopacity="0.25"
     inkscape:showpageshadow="2"
     inkscape:pageopacity="0.0"
     inkscape:pagecheckerboard="0"
     inkscape:deskcolor="#d1d1d1"
     inkscape:zoom="1.1458333"
     inkscape:cx="600"
     inkscape:cy="360"
     inkscape:window-width="1920"
     inkscape:window-height="1027"
     inkscape:window-x="-8"
     inkscape:window-y="792"
     inkscape:window-maximized="1"
     inkscape:current-layer="g134" />
  <title
     id="mt">Lightning Tab Groups in a Firefox window</title>
  <desc
     id="md">A Firefox window showing six tabs of the Recipes group, with the add-on popup open. The popup lists four tab groups: Default, GitHub, Recipes and Cats, each with its number of tabs. The page behind shows a stack of pancakes with butter and blueberries.</desc>
  <defs
     id="defs61">
    <symbol
       id="logo"
       viewBox="0 0 13.229166 13.229167">
      <path
         fill="#12C6FF"
         d="M 6.6145823,-6.6666667e-6 A 6.6144605,6.6144714 0 0 0 -1.6667575e-6,6.6145833 6.6144605,6.6144714 0 0 0 1.8988503,11.246583 l 4.208214,-7.2854997 1.170253,1.91877 4.0320627,-3.92382 A 6.6144605,6.6144714 0 0 0 6.6145823,-6.6666667e-6 Z M 11.30938,1.9560333 a 6.6144605,6.6144714 0 0 1 0.02502,0.025 l 0.05769,-0.10517 z m 0.02502,0.025 -4.1403057,7.57551 -1.15902,-2.20724 -4.111713,3.9217797 a 6.6144605,6.6144714 0 0 0 4.691223,1.95809 A 6.6144605,6.6144714 0 0 0 13.229168,6.6145733 6.6144605,6.6144714 0 0 0 11.3344,1.9810333 Z M 1.9233613,11.271083 a 6.6144605,6.6144714 0 0 1 -0.02451,-0.0245 l -0.06178,0.10672 z"
         id="path1" />
    </symbol>
    <clipPath
       id="win">
      <rect
         width="1200"
         height="720"
         rx="14"
         id="rect1" />
    </clipPath>
    <pattern
       id="dots"
       width="60"
       height="60"
       patternUnits="userSpaceOnUse">
      <rect
         width="60"
         height="60"
         fill="#F5F2EA"
         id="rect2" />
      <circle
         cx="15"
         cy="15"
         r="9"
         fill="#2A9D8F"
         id="circle2" />
      <circle
         cx="45"
         cy="45"
         r="9"
         fill="#2A9D8F"
         id="circle3" />
    </pattern>
    <linearGradient
       id="marble"
       x1="0"
       y1="0"
       x2="0"
       y2="1">
      <stop
         offset="0"
         stop-color="#F8F8F6"
         id="stop3" />
      <stop
         offset="1"
         stop-color="#E6E8EE"
         id="stop4" />
    </linearGradient>
    <linearGradient
       id="edge"
       x1="0"
       y1="0"
       x2="0"
       y2="1">
      <stop
         offset="0"
         stop-color="#000"
         stop-opacity=".16"
         id="stop5" />
      <stop
         offset="1"
         stop-color="#000"
         stop-opacity="0"
         id="stop6" />
    </linearGradient>
    <linearGradient
       id="body"
       x1="0"
       y1="0"
       x2="0"
       y2="1">
      <stop
         offset="0"
         stop-color="#D9964A"
         id="stop7" />
      <stop
         offset=".2"
         stop-color="#EDC382"
         id="stop8" />
      <stop
         offset=".6"
         stop-color="#F4D9A0"
         id="stop9" />
      <stop
         offset=".9"
         stop-color="#E2B064"
         id="stop10" />
      <stop
         offset="1"
         stop-color="#C98533"
         id="stop11" />
    </linearGradient>
    <linearGradient
       id="side0"
       gradientUnits="userSpaceOnUse"
       x1="0"
       y1="37"
       x2="0"
       y2="69">
      <stop
         offset="0"
         stop-color="#D3903F"
         id="stop12" />
      <stop
         offset=".14"
         stop-color="#EBBF7C"
         id="stop13" />
      <stop
         offset=".5"
         stop-color="#F6DDA6"
         id="stop14" />
      <stop
         offset=".85"
         stop-color="#E7B76B"
         id="stop15" />
      <stop
         offset="1"
         stop-color="#C58130"
         id="stop16" />
    </linearGradient>
    <linearGradient
       id="side1"
       gradientUnits="userSpaceOnUse"
       x1="0"
       y1="12"
       x2="0"
       y2="44">
      <stop
         offset="0"
         stop-color="#D3903F"
         id="stop17" />
      <stop
         offset=".14"
         stop-color="#EBBF7C"
         id="stop18" />
      <stop
         offset=".5"
         stop-color="#F6DDA6"
         id="stop19" />
      <stop
         offset=".85"
         stop-color="#E7B76B"
         id="stop20" />
      <stop
         offset="1"
         stop-color="#C58130"
         id="stop21" />
    </linearGradient>
    <linearGradient
       id="side2"
       gradientUnits="userSpaceOnUse"
       x1="0"
       y1="-12"
       x2="0"
       y2="20">
      <stop
         offset="0"
         stop-color="#D3903F"
         id="stop22" />
      <stop
         offset=".14"
         stop-color="#EBBF7C"
         id="stop23" />
      <stop
         offset=".5"
         stop-color="#F6DDA6"
         id="stop24" />
      <stop
         offset=".85"
         stop-color="#E7B76B"
         id="stop25" />
      <stop
         offset="1"
         stop-color="#C58130"
         id="stop26" />
    </linearGradient>
    <linearGradient
       id="side3"
       gradientUnits="userSpaceOnUse"
       x1="0"
       y1="-37"
       x2="0"
       y2="-5">
      <stop
         offset="0"
         stop-color="#D3903F"
         id="stop27" />
      <stop
         offset=".14"
         stop-color="#EBBF7C"
         id="stop28" />
      <stop
         offset=".5"
         stop-color="#F6DDA6"
         id="stop29" />
      <stop
         offset=".85"
         stop-color="#E7B76B"
         id="stop30" />
      <stop
         offset="1"
         stop-color="#C58130"
         id="stop31" />
    </linearGradient>
    <linearGradient
       id="side4"
       gradientUnits="userSpaceOnUse"
       x1="0"
       y1="-60"
       x2="0"
       y2="-28">
      <stop
         offset="0"
         stop-color="#D3903F"
         id="stop32" />
      <stop
         offset=".14"
         stop-color="#EBBF7C"
         id="stop33" />
      <stop
         offset=".5"
         stop-color="#F6DDA6"
         id="stop34" />
      <stop
         offset=".85"
         stop-color="#E7B76B"
         id="stop35" />
      <stop
         offset="1"
         stop-color="#C58130"
         id="stop36" />
    </linearGradient>
    <linearGradient
       id="side5"
       gradientUnits="userSpaceOnUse"
       x1="0"
       y1="-85"
       x2="0"
       y2="-53">
      <stop
         offset="0"
         stop-color="#D3903F"
         id="stop37" />
      <stop
         offset=".14"
         stop-color="#EBBF7C"
         id="stop38" />
      <stop
         offset=".5"
         stop-color="#F6DDA6"
         id="stop39" />
      <stop
         offset=".85"
         stop-color="#E7B76B"
         id="stop40" />
      <stop
         offset="1"
         stop-color="#C58130"
         id="stop41" />
    </linearGradient>
    <linearGradient
       id="side6"
       gradientUnits="userSpaceOnUse"
       x1="0"
       y1="-110"
       x2="0"
       y2="-78">
      <stop
         offset="0"
         stop-color="#D3903F"
         id="stop42" />
      <stop
         offset=".14"
         stop-color="#EBBF7C"
         id="stop43" />
      <stop
         offset=".5"
         stop-color="#F6DDA6"
         id="stop44" />
      <stop
         offset=".85"
         stop-color="#E7B76B"
         id="stop45" />
      <stop
         offset="1"
         stop-color="#C58130"
         id="stop46" />
    </linearGradient>
    <linearGradient
       id="roundH"
       x1="0"
       y1="0"
       x2="1"
       y2="0">
      <stop
         offset="0"
         stop-color="#5A2E08"
         stop-opacity=".32"
         id="stop47" />
      <stop
         offset=".16"
         stop-color="#5A2E08"
         stop-opacity="0"
         id="stop48" />
      <stop
         offset=".84"
         stop-color="#5A2E08"
         stop-opacity="0"
         id="stop49" />
      <stop
         offset="1"
         stop-color="#5A2E08"
         stop-opacity=".32"
         id="stop50" />
    </linearGradient>
    <linearGradient
       id="sidefill"
       x1="0"
       y1="0"
       x2="0"
       y2="1">
      <stop
         offset=".6"
         stop-color="#CF8F3E"
         id="stop51" />
      <stop
         offset=".7"
         stop-color="#E9BC78"
         id="stop52" />
      <stop
         offset=".82"
         stop-color="#F6DDA6"
         id="stop53" />
      <stop
         offset=".93"
         stop-color="#E5B468"
         id="stop54" />
      <stop
         offset="1"
         stop-color="#C58130"
         id="stop55" />
    </linearGradient>
    <radialGradient
       id="cake"
       cx=".45"
       cy=".4"
       r=".75">
      <stop
         offset="0"
         stop-color="#E9B55F"
         id="stop56" />
      <stop
         offset=".7"
         stop-color="#D38F38"
         id="stop57" />
      <stop
         offset="1"
         stop-color="#BC7626"
         id="stop58" />
    </radialGradient>
    <filter
       id="blur"
       x="-0.053164557"
       y="-0.22702703"
       width="1.1063291"
       height="1.4540541">
      <feGaussianBlur
         stdDeviation="14"
         id="feGaussianBlur58" />
    </filter>
    <filter
       id="blur2"
       x="-0.039622642"
       y="-0.19090909"
       width="1.0792453"
       height="1.3818182">
      <feGaussianBlur
         stdDeviation="7"
         id="feGaussianBlur59" />
    </filter>
    <filter
       id="pop"
       x="0"
       y="0"
       width="1"
       height="1">
      <feDropShadow
         dx="0"
         dy="6"
         stdDeviation="9"
         flood-color="#0B0D28"
         flood-opacity=".3" />
    </filter>
    <g
       id="berry">
      <ellipse
         cx="2"
         cy="10"
         rx="12"
         ry="4"
         fill="#0B0D28"
         opacity=".22"
         id="ellipse59" />
      <circle
         r="13"
         fill="#384B9A"
         id="circle59" />
      <circle
         cx="-4"
         cy="-5"
         r="4"
         fill="#fff"
         opacity=".22"
         id="circle60" />
      <circle
         cx="4"
         cy="4"
         r="3.4"
         fill="#1F2B68"
         id="circle61" />
    </g>
  </defs>
  <g
     clip-path="url(#win)"
     id="g134">
    <!-- window chrome -->
    <rect
       width="1200"
       height="720"
       fill="#F9F9FB"
       id="rect61" />
    <rect
       width="1200"
       height="44"
       fill="#E4E5EB"
       id="rect62" />
    <!-- tabs (Recipes group) -->
    <path
       d="M12 44V16a8 8 0 0 1 8-8h140a8 8 0 0 1 8 8v28z"
       fill="#F9F9FB"
       id="path62" />
    <circle
       cx="32"
       cy="27"
       r="7"
       fill="#F0B04A"
       id="circle62" />
    <text
       x="46"
       y="32"
       font-size="13.5"
       font-weight="600"
       fill="#15141A"
       id="text62">Fluffy Pancakes</text>
    <path
       d="M152 22l8 8m0-8l-8 8"
       stroke="#55555F"
       stroke-width="1.6"
       stroke-linecap="round"
       id="path63" />
    <g
       font-size="13.5"
       fill="#3A3A44"
       id="g67">
      <circle
         cx="202"
         cy="27"
         r="7"
         fill="#C27C2B"
         id="circle63" />
      <text
         x="216"
         y="32"
         id="text63">Maple Syrup Guide</text>
      <circle
         cx="372"
         cy="27"
         r="7"
         fill="#7A8FD6"
         id="circle64" />
      <text
         x="386"
         y="32"
         id="text64">Buttermilk Swaps</text>
      <circle
         cx="542"
         cy="27"
         r="7"
         fill="#55555F"
         id="circle65" />
      <text
         x="556"
         y="32"
         id="text65">Cast Iron Pans</text>
      <circle
         cx="712"
         cy="27"
         r="7"
         fill="#384B9A"
         id="circle66" />
      <text
         x="726"
         y="32"
         id="text66">Blueberry Compote</text>
      <circle
         cx="882"
         cy="27"
         r="7"
         fill="#5BA97A"
         id="circle67" />
      <text
         x="896"
         y="32"
         id="text67">Weekend Brunch</text>
    </g>
    <path
       d="M1058 27h14m-7-7v14"
       stroke="#3A3A44"
       stroke-width="1.8"
       stroke-linecap="round"
       id="path67" />
    <g
       stroke="#2B2B33"
       stroke-width="1.4"
       fill="none"
       stroke-linecap="round"
       id="g69">
      <path
         d="M1116 22h12"
         id="path68" />
      <rect
         x="1150"
         y="17"
         width="10"
         height="10"
         id="rect68" />
      <path
         d="M1180 17l11 11m0-11l-11 11"
         id="path69" />
    </g>
    <!-- toolbar -->
    <rect
       y="44"
       width="1200"
       height="48"
       fill="#F9F9FB"
       id="rect69" />
    <rect
       x="10"
       y="50"
       width="38"
       height="36"
       rx="7"
       fill="#D8D9E2"
       id="rect70" />
    <use
       href="#logo"
       x="15"
       y="54"
       width="28"
       height="28"
       id="use70" />
    <g
       stroke="#A2A3AF"
       stroke-width="2"
       fill="none"
       stroke-linecap="round"
       stroke-linejoin="round"
       id="g71">
      <path
         d="M98 68H80m7-8-8 8 8 8"
         id="path70" />
      <path
         d="M120 68h18m-7-8 8 8-8 8"
         id="path71" />
    </g>
    <g
       stroke="#3A3A44"
       stroke-width="2"
       fill="none"
       stroke-linecap="round"
       stroke-linejoin="round"
       id="g74">
      <path
         d="M184 61a9 9 0 1 0 2 8"
         id="path72" />
      <path
         d="M186 55v7h-7"
         id="path73" />
      <path
         d="M214 69l10-9 10 9m-16-3v10h12V66"
         id="path74" />
    </g>
    <rect
       x="262"
       y="50"
       width="780"
       height="36"
       rx="9"
       fill="#EBEBF1"
       id="rect74" />
    <path
       d="M276 57l10 3.5V68c0 6-4 10-10 12.5C270 78 266 74 266 68v-7.5z"
       fill="none"
       stroke="#4A5CF0"
       stroke-width="1.8"
       stroke-linejoin="round"
       transform="translate(4 -2)"
       id="path75" />
    <rect
       x="310"
       y="68"
       width="14"
       height="11"
       rx="2.5"
       fill="#55555F"
       id="rect75" />
    <path
       d="M313 68v-3a4 4 0 0 1 8 0v3"
       fill="none"
       stroke="#55555F"
       stroke-width="1.8"
       id="path76" />
    <text
       x="338"
       y="74"
       font-size="16.5"
       fill="#6B6B78"
       id="text76">https://<tspan
   fill="#15141A"
   id="tspan76">kitchen.example</tspan>/fluffy-pancakes/</text>
    <path
       d="M1146 62h18m-18 6h18m-18 6h18"
       stroke="#3A3A44"
       stroke-width="2"
       stroke-linecap="round"
       id="path77" />
    <rect
       y="91"
       width="1200"
       height="1"
       fill="#D3D4DD"
       id="rect77" />
    <!-- page: pancakes -->
    <g
       id="g114">
      <rect
         y="92"
         width="1200"
         height="628"
         fill="url(#marble)"
         id="rect78" />
      <rect
         y="92"
         width="1200"
         height="236"
         fill="url(#dots)"
         id="rect79" />
      <rect
         y="328"
         width="1200"
         height="6"
         fill="#FFFFFF"
         opacity=".9"
         id="rect80" />
      <rect
         y="334"
         width="1200"
         height="30"
         fill="url(#edge)"
         id="rect81" />
      <g
         transform="translate(790 556) scale(1.22)"
         id="g113">
        <ellipse
           cx="0"
           cy="66"
           rx="316"
           ry="74"
           fill="#0B0D28"
           opacity=".28"
           filter="url(#blur)"
           id="ellipse81" />
        <ellipse
           cx="0"
           cy="42"
           rx="300"
           ry="70"
           fill="#FFFFFF"
           stroke="#DADCE4"
           stroke-width="2"
           id="ellipse82" />
        <ellipse
           cx="0"
           cy="38"
           rx="248"
           ry="52"
           fill="#F1F2F6"
           id="ellipse83" />
        <ellipse
           cx="0"
           cy="40"
           rx="212"
           ry="44"
           fill="#0B0D28"
           opacity=".18"
           filter="url(#blur2)"
           id="ellipse84" />
        <use
           href="#berry"
           x="-262"
           y="40"
           id="use84" />
        <use
           href="#berry"
           x="-238"
           y="66"
           id="use85" />
        <use
           href="#berry"
           x="236"
           y="64"
           id="use87" />
        <g
           id="g88"
           transform="translate(0 0)">
          <path
             d="M-194 4 C-207 11 -207 23 -194 30 A194 37 0 0 0 194 30 C207 23 207 11 194 4 A194 37 0 0 0 -194 4Z"
             fill="url(#side0)"
             id="path87" />
          <path
             d="M-194 4 C-207 11 -207 23 -194 30 A194 37 0 0 0 194 30 C207 23 207 11 194 4 A194 37 0 0 0 -194 4Z"
             fill="url(#roundH)"
             id="path88" />
          <ellipse
             cx="0"
             cy="4"
             rx="194"
             ry="37"
             fill="#D9A04A"
             id="ellipse88" />
        </g>
        <g
           transform="translate(5 0)"
           id="g90">
          <path
             d="M-188 -20 C-201 -13 -201 -1 -188 6 A188 36 0 0 0 188 6 C201 -1 201 -13 188 -20 A188 36 0 0 0 -188 -20Z"
             fill="url(#side1)"
             id="path89" />
          <path
             d="M-188 -20 C-201 -13 -201 -1 -188 6 A188 36 0 0 0 188 6 C201 -1 201 -13 188 -20 A188 36 0 0 0 -188 -20Z"
             fill="url(#roundH)"
             id="path90" />
          <ellipse
             cx="0"
             cy="-20"
             rx="188"
             ry="36"
             fill="#D9A04A"
             id="ellipse90" />
        </g>
        <g
           transform="translate(-5 0)"
           id="g92">
          <path
             d="M-192 -44 C-205 -37 -205 -25 -192 -18 A192 36 0 0 0 192 -18 C205 -25 205 -37 192 -44 A192 36 0 0 0 -192 -44Z"
             fill="url(#side2)"
             id="path91" />
          <path
             d="M-192 -44 C-205 -37 -205 -25 -192 -18 A192 36 0 0 0 192 -18 C205 -25 205 -37 192 -44 A192 36 0 0 0 -192 -44Z"
             fill="url(#roundH)"
             id="path92" />
          <ellipse
             cx="0"
             cy="-44"
             rx="192"
             ry="36"
             fill="#D9A04A"
             id="ellipse92" />
        </g>
        <g
           transform="translate(3 0)"
           id="g94">
          <path
             d="M-185 -68 C-198 -61 -198 -49 -185 -42 A185 35 0 0 0 185 -42 C198 -49 198 -61 185 -68 A185 35 0 0 0 -185 -68Z"
             fill="url(#side3)"
             id="path93" />
          <path
             d="M-185 -68 C-198 -61 -198 -49 -185 -42 A185 35 0 0 0 185 -42 C198 -49 198 -61 185 -68 A185 35 0 0 0 -185 -68Z"
             fill="url(#roundH)"
             id="path94" />
          <ellipse
             cx="0"
             cy="-68"
             rx="185"
             ry="35"
             fill="#D9A04A"
             id="ellipse94" />
        </g>
        <g
           transform="translate(-4 0)"
           id="g96">
          <path
             d="M-190 -92 C-203 -85 -203 -73 -190 -66 A190 36 0 0 0 190 -66 C203 -73 203 -85 190 -92 A190 36 0 0 0 -190 -92Z"
             fill="url(#side4)"
             id="path95" />
          <path
             d="M-190 -92 C-203 -85 -203 -73 -190 -66 A190 36 0 0 0 190 -66 C203 -73 203 -85 190 -92 A190 36 0 0 0 -190 -92Z"
             fill="url(#roundH)"
             id="path96" />
          <ellipse
             cx="0"
             cy="-92"
             rx="190"
             ry="36"
             fill="#D9A04A"
             id="ellipse96" />
        </g>
        <g
           transform="translate(4 0)"
           id="g98">
          <path
             d="M-183 -116 C-196 -109 -196 -97 -183 -90 A183 35 0 0 0 183 -90 C196 -97 196 -109 183 -116 A183 35 0 0 0 -183 -116Z"
             fill="url(#side5)"
             id="path97" />
          <path
             d="M-183 -116 C-196 -109 -196 -97 -183 -90 A183 35 0 0 0 183 -90 C196 -97 196 -109 183 -116 A183 35 0 0 0 -183 -116Z"
             fill="url(#roundH)"
             id="path98" />
          <ellipse
             cx="0"
             cy="-116"
             rx="183"
             ry="35"
             fill="#D9A04A"
             id="ellipse98" />
        </g>
        <g
           transform="translate(-2 0)"
           id="g101">
          <path
             d="M-178 -140 C-191 -133 -191 -121 -178 -114 A178 34 0 0 0 178 -114 C191 -121 191 -133 178 -140 A178 34 0 0 0 -178 -140Z"
             fill="url(#side6)"
             id="path99" />
          <path
             d="M-178 -140 C-191 -133 -191 -121 -178 -114 A178 34 0 0 0 178 -114 C191 -121 191 -133 178 -140 A178 34 0 0 0 -178 -140Z"
             fill="url(#roundH)"
             id="path100" />
          <ellipse
             cx="0"
             cy="-140"
             rx="178"
             ry="34"
             fill="url(#cake)"
             id="ellipse100" />
          <ellipse
             cx="0"
             cy="-140"
             rx="171"
             ry="30"
             fill="none"
             stroke="#F6D89A"
             stroke-width="3"
             opacity=".85"
             id="ellipse101" />
        </g>
        <!-- top surface texture -->
        <g
           transform="translate(-2 -140)"
           fill="#A9631F"
           id="g107">
          <ellipse
             cx="-90"
             cy="-4"
             rx="26"
             ry="5"
             opacity=".18"
             id="ellipse102" />
          <ellipse
             cx="60"
             cy="8"
             rx="30"
             ry="6"
             opacity=".16"
             id="ellipse103" />
          <ellipse
             cx="-30"
             cy="14"
             rx="22"
             ry="4"
             opacity=".14"
             id="ellipse104" />
          <ellipse
             cx="120"
             cy="-6"
             rx="18"
             ry="4"
             opacity=".16"
             id="ellipse105" />
          <ellipse
             cx="-130"
             cy="8"
             rx="16"
             ry="3.5"
             opacity=".14"
             id="ellipse106" />
          <ellipse
             cx="-60"
             cy="-14"
             rx="70"
             ry="7"
             fill="#FFF2CF"
             opacity=".22"
             id="ellipse107" />
        </g>
        <!-- butter, melting a little -->
        <g
           transform="translate(0 -24)"
           id="g112">
          <ellipse
             cx="0"
             cy="-106"
             rx="74"
             ry="14"
             fill="#FFE27A"
             opacity=".45"
             id="ellipse108" />
          <ellipse
             cx="4"
             cy="-108"
             rx="52"
             ry="8"
             fill="#0B0D28"
             opacity=".18"
             id="ellipse109" />
          <rect
             x="-40"
             y="-126"
             width="80"
             height="17"
             rx="4"
             fill="#EFCF62"
             id="rect109" />
          <rect
             x="-40"
             y="-142"
             width="80"
             height="22"
             rx="5"
             fill="#FFF4BC"
             id="rect110" />
          <ellipse
             cx="-18"
             cy="-133"
             rx="18"
             ry="3.5"
             fill="#fff"
             opacity=".75"
             id="ellipse110" />
          <use
             href="#berry"
             x="104"
             y="-102"
             id="use110" />
          <use
             href="#berry"
             x="134"
             y="-90"
             id="use111" />
          <use
             href="#berry"
             x="-112"
             y="-96"
             id="use112" />
        </g>
      </g>
    </g>
    <!-- add-on popup -->
    <g
       transform="translate(20 100)"
       filter="url(#pop)"
       id="g133">
      <rect
         width="340"
         height="262"
         rx="14"
         fill="#FFFFFF"
         id="rect114" />
      <text
         x="22"
         y="40"
         font-size="22"
         font-weight="700"
         fill="#15141A"
         id="text114">Tab groups</text>
      <path
         d="M226 30h12m-6-6v12"
         stroke="#15141A"
         stroke-width="3.6"
         stroke-linecap="square"
         id="path114" />
      <circle
         cx="270"
         cy="28"
         r="6.5"
         fill="none"
         stroke="#15141A"
         stroke-width="2.6"
         id="circle114" />
      <path
         d="M275 33l7 7"
         stroke="#15141A"
         stroke-width="2.8"
         stroke-linecap="round"
         id="path115" />
      <circle
         cx="312"
         cy="30"
         r="9"
         fill="none"
         stroke="#15141A"
         stroke-width="2"
         id="circle115" />
      <text
         x="312"
         y="35.5"
         font-size="14"
         font-weight="700"
         text-anchor="middle"
         fill="#15141A"
         id="text115">?</text>
      <!-- row 3 selected -->
      <rect
         x="8"
         y="158"
         width="324"
         height="42"
         rx="10"
         fill="none"
         stroke="#15141A"
         stroke-width="2.2"
         id="rect115" />
      <g
         font-size="21"
         fill="#15141A"
         id="g122">
        <!-- 1 -->
        <text
           x="22"
           y="90"
           id="text116">1.</text>
        <text
           x="90"
           y="90"
           id="text117">Default</text>
        <!-- 2 -->
        <text
           x="22"
           y="138"
           id="text118" />
        <!-- 3 -->
        <text
           x="22"
           y="186"
           id="text119">3.</text>
        <text
           x="120"
           y="186"
           id="text120">Recipes</text>
        <!-- 4 -->
        <text
           x="22"
           y="234"
           id="text121">4.</text>
        <text
           x="90"
           y="234"
           fill="#A44DEB"
           id="text122">Cats</text>
      </g>
      <g
         font-size="21"
         fill="#15141A"
         id="g124">
        <text
           x="22"
           y="138"
           id="text123">2.</text>
        <text
           x="90"
           y="138"
           id="text124">GitHub</text>
      </g>
      <!-- icons row 2 briefcase -->
      <g
         transform="translate(54 118)"
         id="g125">
        <rect
           x="1"
           y="7"
           width="24"
           height="17"
           rx="3.5"
           fill="#F5A623"
           id="rect124" />
        <path
           d="M8 7V5a2 2 0 0 1 2-2h6a2 2 0 0 1 2 2v2"
           fill="none"
           stroke="#C97C10"
           stroke-width="2.2"
           id="path124" />
        <path
           d="M1 15h24"
           stroke="#C97C10"
           stroke-width="1.6"
           id="path125" />
      </g>
      <!-- row 3: fork+knife, pancakes -->
      <g
         transform="translate(54 166)"
         stroke="#1E9BF0"
         stroke-width="2.4"
         fill="none"
         stroke-linecap="round"
         id="g126">
        <path
           d="M6 2v8a3 3 0 0 0 3 3v11M2 2v8m8-8v8M18 24V2c-3 2-4.5 6-4.5 10H18"
           id="path126" />
      </g>
      <g
         transform="translate(86 166)"
         id="g128">
        <ellipse
           cx="13"
           cy="21"
           rx="12"
           ry="4.6"
           fill="#D69A3E"
           id="ellipse126" />
        <rect
           x="1"
           y="15"
           width="24"
           height="6"
           fill="#F0C066"
           id="rect126" />
        <ellipse
           cx="13"
           cy="15"
           rx="12"
           ry="4.6"
           fill="#D69A3E"
           id="ellipse127" />
        <rect
           x="1"
           y="9"
           width="24"
           height="6"
           fill="#F0C066"
           id="rect127" />
        <ellipse
           cx="13"
           cy="9"
           rx="12"
           ry="4.6"
           fill="#E7AE55"
           id="ellipse128" />
        <rect
           x="8"
           y="3"
           width="10"
           height="5"
           rx="1.5"
           fill="#FFE98A"
           id="rect128" />
      </g>
      <!-- row 4 cat -->
      <g
         transform="translate(54 214)"
         id="g129">
        <path
           d="M2 9L6 1l6 5h3l6-5 4 8v9c0 5-5 8-12 8S2 23 2 18z"
           fill="#A44DEB"
           transform="translate(-1 0) scale(1 .96)"
           id="path128" />
        <circle
           cx="9"
           cy="14"
           r="1.8"
           fill="#fff"
           id="circle128" />
        <circle
           cx="18"
           cy="14"
           r="1.8"
           fill="#fff"
           id="circle129" />
      </g>
      <!-- counts -->
      <g
         fill="#15141A"
         id="g132">
        <rect
           x="268"
           y="80"
           width="13"
           height="5.5"
           rx="2.7"
           id="rect129" />
        <text
           x="322"
           y="90"
           font-size="21"
           text-anchor="end"
           id="text129">1</text>
        <rect
           x="268"
           y="128"
           width="13"
           height="5.5"
           rx="2.7"
           id="rect130" />
        <text
           x="322"
           y="138"
           font-size="21"
           text-anchor="end"
           id="text130">5</text>
        <rect
           x="268"
           y="176"
           width="13"
           height="5.5"
           rx="2.7"
           id="rect131" />
        <text
           x="322"
           y="186"
           font-size="21"
           text-anchor="end"
           id="text131">6</text>
        <rect
           x="268"
           y="224"
           width="13"
           height="5.5"
           rx="2.7"
           id="rect132" />
        <text
           x="322"
           y="234"
           font-size="21"
           text-anchor="end"
           id="text132">8</text>
      </g>
    </g>
  </g>
  <rect
     x=".5"
     y=".5"
     width="1199"
     height="719"
     rx="14"
     fill="none"
     stroke="#B9BBC9"
     id="rect134" />
</svg>
